<?xml version="1.0" encoding="utf-8"?>
<!-- Generator: Adobe Illustrator 23.0.2, SVG Export Plug-In . SVG Version: 6.00 Build 0)  -->
<svg version="1.1" id="Layer_1" xmlns="http://www.w3.org/2000/svg" xmlns:xlink="http://www.w3.org/1999/xlink" x="0px" y="0px"
	 viewBox="0 0 904 904" style="enable-background:new 0 0 904 904;" xml:space="preserve">
<style type="text/css">
	.st0{fill:none;}
	.st1{fill:#FFFFFF;}
</style>
<title>icon-high-five-white-64</title>
<desc>Created with Sketch.</desc>
<g id="icon-high-five-white-64">
	<polygon id="Rectangle-7" class="st0" points="86,86 818,86 818,818 86,818 	"/>
	<g id="Group" transform="translate(2.000000, 9.000000)">
		<path id="Stroke-9" class="st1" d="M610.1,443c0,25.3,20.5,45.8,45.8,45.8s45.8-20.5,45.8-45.8c0-25.3-20.5-45.7-45.8-45.7
			S610.1,417.7,610.1,443z M575.8,443c0-44.2,35.8-80.1,80.1-80.1s80.1,35.8,80.1,80.1c0,44.2-35.8,80.1-80.1,80.1
			S575.8,487.2,575.8,443z"/>
		<path class="st1" d="M484.3,294.3l34.3,0c0,8.7-0.1,16-0.3,30c-1,77.2,2.4,102.7,22.5,129.6c16.6,22.3,61.8,34.8,126.5,34.8
			c73,0,125.8,63.2,125.8,140.6v99.6h-34.3v-99.6c0-59.7-39-106.3-91.5-106.3c-74.6,0-128.9-15-154-48.6
			c-26.3-35.3-30.4-65.6-29.3-150.6C484.2,310,484.3,302.8,484.3,294.3z"/>
		<polygon id="Stroke-15" class="st1" points="509.8,185.7 541.9,197.9 517,263.3 484.9,251.1 		"/>
		<path class="st1" d="M552.9,728.9h-34.3V620.3c0-31.9,11.4-62.1,31.9-85.8l26,22.4c-15.1,17.5-23.5,39.8-23.5,63.4V728.9z"/>
		<path class="st1" d="M301.3,443c0,25.3-20.5,45.8-45.8,45.8s-45.8-20.5-45.8-45.8c0-25.3,20.5-45.7,45.8-45.7
			S301.3,417.7,301.3,443z M335.6,443c0-44.2-35.8-80.1-80.1-80.1s-80.1,35.8-80.1,80.1c0,44.2,35.8,80.1,80.1,80.1
			S335.6,487.2,335.6,443z"/>
		<path class="st1" d="M415.8,294.3l-34.3,0c0,8.7,0.1,16,0.3,30c1,77.2-2.4,102.7-22.5,129.6c-17.6,23.6-53.4,34.8-115,34.8
			C169.8,488.8,107,554,107,629.4v99.6h34.3v-99.6c0-56.6,47.8-106.3,102.9-106.3c71.3,0,117-14.3,142.5-48.6
			c26.3-35.3,30.4-65.6,29.3-150.6C415.8,310,415.8,302.8,415.8,294.3z"/>
		<polygon class="st1" points="390.2,185.7 358.1,197.9 383,263.3 415.1,251.1 		"/>
		<path class="st1" d="M342.9,728.9h34.3V620.3c0-31.9-11.4-62.1-31.9-85.8l-26,22.4c15.1,17.5,23.5,39.8,23.5,63.4V728.9z"/>
	</g>
</g>
</svg>
